# xmcd
# 
# Track frame offsets:
#     150
#     22313
#     54037
#     75489
#     107704
#     128358
#     152802
#     174302
#     197750
#     230332
# 
# Disc length: 3299
# 
# Revision: 0
# Processed by: cddbd v1.5.2PL0 Copyright (c) Steve Scherf et al.
# Submitted via: BonkEnc v1.0.8
# 
DISCID=6f0ce10a
DTITLE=Buddy Guy - The Complete DJ Play My Blues
DYEAR=0
DGENRE=Blues
TTITLE0=Girl You're Nice and Clean
TTITLE1=Dedication to the Late T-Bone Walker
TTITLE2=Good News
TTITLE3=Blues at My Baby's House
TTITLE4=She Suits Me At
TTITLE5=DJ Play my Blues
TTITLE6=Just Teasin'
TTITLE7=All Your Love
TTITLE8=Garbage Man Blues
TTITLE9=Mellow Down
EXTD=
EXTT0=
EXTT1=
EXTT2=
EXTT3=
EXTT4=
EXTT5=
EXTT6=
EXTT7=
EXTT8=
EXTT9=
PLAYORDER=
